<svg width="40.000000" height="27.269348" viewBox="0 0 40 27.2693" fill="none" xmlns="http://www.w3.org/2000/svg" xmlns:xlink="http://www.w3.org/1999/xlink">
	<desc>
			Created with Pixso.
	</desc>
	<defs/>
	<path id="Vector" d="M32.7 19.93C31.72 19.93 30.79 20.32 30.09 21.01C29.39 21.71 29 22.62 29 23.6C29 24.58 29.38 25.49 30.09 26.19C30.8 26.88 31.72 27.26 32.7 27.26C34.7 27.26 36.33 25.62 36.33 23.6C36.33 21.58 34.7 19.93 32.7 19.93ZM32.7 25.64C31.57 25.64 30.63 24.71 30.63 23.6C30.63 22.49 31.57 21.56 32.7 21.56C33.8 21.56 34.7 22.48 34.7 23.6C34.7 24.72 33.8 25.64 32.7 25.64ZM33.64 7.72C33.5 7.59 33.3 7.51 33.1 7.51L28.92 7.51C28.47 7.51 28.1 7.88 28.1 8.33L28.1 15.01C28.1 15.45 28.47 15.82 28.92 15.82L35.55 15.82C36 15.82 36.36 15.45 36.36 15.01L36.36 10.53C36.36 10.31 36.26 10.09 36.09 9.93L33.64 7.72ZM34.73 14.19L29.73 14.19L29.73 9.13L32.78 9.13L34.73 10.89L34.73 14.19ZM12.81 19.93C11.83 19.93 10.9 20.32 10.2 21.01C9.5 21.71 9.11 22.62 9.11 23.6C9.11 24.58 9.49 25.49 10.2 26.19C10.91 26.88 11.83 27.26 12.81 27.26C14.81 27.26 16.44 25.62 16.44 23.6C16.44 21.58 14.81 19.93 12.81 19.93ZM12.81 25.64C11.68 25.64 10.74 24.71 10.74 23.6C10.74 22.49 11.68 21.56 12.81 21.56C13.91 21.56 14.81 22.48 14.81 23.6C14.81 24.72 13.91 25.64 12.81 25.64ZM7.37 20.94L5.74 20.94L5.74 18.77C5.74 18.32 5.37 17.95 4.92 17.95C4.47 17.95 4.11 18.32 4.11 18.77L4.11 21.75C4.11 22.2 4.47 22.56 4.92 22.56L7.37 22.56C7.82 22.56 8.19 22.2 8.19 21.75C8.19 21.3 7.82 20.94 7.37 20.94ZM11.5 16.5C11.5 16.05 11.14 15.68 10.69 15.68L0.81 15.68C0.36 15.68 0 16.05 0 16.5C0 16.94 0.36 17.31 0.81 17.31L10.69 17.31C11.14 17.31 11.5 16.95 11.5 16.5ZM2.46 13.56L12.34 13.61C12.79 13.61 13.16 13.26 13.17 12.81C13.17 12.35 12.81 11.98 12.36 11.98L2.48 11.93C2.47 11.93 2.47 11.93 2.47 11.93C2.02 11.93 1.66 12.29 1.66 12.73C1.65 13.19 2.02 13.56 2.46 13.56ZM4.12 9.86L14 9.86C14.45 9.86 14.82 9.49 14.82 9.04C14.82 8.6 14.45 8.23 14 8.23L4.12 8.23C3.68 8.23 3.31 8.6 3.31 9.04C3.31 9.49 3.68 9.86 4.12 9.86ZM39.69 8.76L33.86 3.93C33.72 3.81 33.54 3.74 33.34 3.74L26.48 3.74L26.48 0.81C26.48 0.36 26.12 0 25.67 0L4.92 0C4.47 0 4.11 0.36 4.11 0.81L4.11 6.77C4.11 7.22 4.47 7.59 4.92 7.59C5.37 7.59 5.74 7.22 5.74 6.77L5.74 1.62L24.86 1.62L24.86 20.94L18.18 20.94C17.73 20.94 17.37 21.3 17.37 21.75C17.37 22.2 17.73 22.56 18.18 22.56L28.13 22.56C28.58 22.56 28.94 22.2 28.94 21.75C28.94 21.3 28.58 20.94 28.13 20.94L26.49 20.94L26.49 5.37L33.06 5.37L38.37 9.77L38.31 20.92L37.46 20.92C37.01 20.92 36.65 21.29 36.65 21.73C36.65 22.18 37.01 22.55 37.46 22.55L39.12 22.55C39.56 22.55 39.93 22.19 39.93 21.74L40 9.39C39.99 9.15 39.88 8.91 39.69 8.76Z" fill="#00B307" fill-opacity="1.000000" fill-rule="nonzero"/>
</svg>
